<?xml version="1.0" encoding="utf-8"?>
<!-- Generator: Adobe Illustrator 19.2.1, SVG Export Plug-In . SVG Version: 6.00 Build 0)  -->
<svg version="1.1" id="Layer_1" xmlns="http://www.w3.org/2000/svg" xmlns:xlink="http://www.w3.org/1999/xlink" x="0px" y="0px"
	 viewBox="0 0 453.2 366.2" style="enable-background:new 0 0 453.2 366.2;" xml:space="preserve">
<style type="text/css">
	.st0{fill:#FFFFFF;}
</style>
<g>
	<path class="st0" d="M66.4,366.2L66.4,366.2L66.4,366.2z"/>
	<path class="st0" d="M314.4,0H139.2C62.6,0,0.5,61.7,0.5,137.8c-7,84.3,66.9,225.7,65.9,228.4c0.1-1.5,7.5-90.8,33-95.5
		c12.1,4,23.4,4.8,39.9,4.8h175.2c76.6,0,138.7-61.7,138.7-137.8S391.1,0,314.4,0z M145.8,104.8H101v25.3h41.8v20.7H101v44.7H75.3
		V84h70.5V104.8z M190.8,195.5h-25.6V84h25.6V195.5z M384.5,195.5h-53.9h-35.9H206v-13.7l55.2-76.1v-0.5H211V84h83.9v14.4
		l-54.1,75.4v0.5h59.3l49.8-68.6v-0.5h-50.3V84h83.9v14.4l-54.1,75.4v0.5h1.2h53.9L384.5,195.5L384.5,195.5z"/>
</g>
</svg>
